<?xml version="1.0" encoding="utf-8"?>
<!-- Generator: Adobe Illustrator 21.1.0, SVG Export Plug-In . SVG Version: 6.00 Build 0)  -->
<svg version="1.1" id="Layer_1" xmlns="http://www.w3.org/2000/svg" xmlns:xlink="http://www.w3.org/1999/xlink" x="0px" y="0px"
	 viewBox="0 0 1790 520" style="enable-background:new 0 0 1790 520;" xml:space="preserve">
<style type="text/css">
	.st0{fill:#FBB800;}
</style>
<g>
	<path d="M423.7,376h-49.9c-16.6,0-24.9-8.2-24.9-24.5V216h-21.2v-38.3h21.2V124h44.8v53.8h28.9V216h-28.9v121.7h30V376z"/>
	<path d="M576.8,351.5c0,16.4-8.4,24.5-25.3,24.5h-77.5c-16.9,0-25.3-8.2-25.3-24.5V202.3c0-16.4,8.4-24.5,25.3-24.5h77.5
		c16.9,0,25.3,8.2,25.3,24.5v72.8l-12.4,12.4h-72.8V343h42.2v-33h43V351.5z M533.8,258.2v-47.5h-42.2v47.5H533.8z"/>
	<path d="M737.5,351.5c0,16.4-8.3,24.5-24.9,24.5h-77.9c-16.9,0-25.3-8.2-25.3-24.5V202.3c0-16.4,8.4-24.5,25.3-24.5h77.9
		c16.6,0,24.9,8.2,24.9,24.5v47.1h-43.8v-34.2h-40.2v123.5h40.2v-37.9h43.8V351.5z"/>
	<path d="M902,376h-45.1V215.2l-42.2,0.8v160h-45V68.8h45V185c10.5-1.6,20.9-3.2,31.4-4.9c13.2-2.1,23.7-3.1,31.4-3.1
		c16.4,0,24.5,8,24.5,24.1V376z"/>
	<path class="st0" d="M1149.4,336.2c0,16.1-5.8,27.4-17.3,33.8c-8.4,4.6-21.1,6.9-38.1,6.9c-3.9,0-9.5-0.1-16.6-0.4
		c-7.1-0.3-12.3-0.4-15.4-0.4v72.4h-45V177.7h45v7.3c10.5-1.6,20.9-3.2,31.4-4.9c13.2-2.1,23.7-3.1,31.4-3.1
		c16.4,0,24.5,8,24.5,24.1V336.2z M1104.2,323.8V215.2L1062,216v122.7h27.9C1099.4,338.7,1104.2,333.7,1104.2,323.8z"/>
	<path class="st0" d="M1305.8,351.5c0,16.4-8.3,24.5-24.9,24.5h-75.6c-16.6,0-24.9-8.2-24.9-24.5v-42.6h43v33.4h39.5v-31.4
		l-68.9-40.6c-9-5.4-13.5-12.6-13.5-21.6v-46.3c0-16.4,8.4-24.5,25.3-24.5h74.8c16.6,0,24.9,8.2,24.9,24.5v39.8h-42.6v-30.6h-39.5
		v28.7l68.7,40.2c9.2,5.2,13.7,12.6,13.7,22V351.5z"/>
	<path class="st0" d="M1422.8,376h-49.9c-16.6,0-24.9-8.2-24.9-24.5V216h-21.2v-38.3h21.2V124h44.8v53.8h28.9V216h-28.9v121.7h30
		V376z"/>
</g>
</svg>
